<?xml version="1.0" standalone="no"?>
<!DOCTYPE svg PUBLIC "-//W3C//DTD SVG 20010904//EN"
 "http://www.w3.org/TR/2001/REC-SVG-20010904/DTD/svg10.dtd">
<svg version="1.0" xmlns="http://www.w3.org/2000/svg"
 width="300.000000pt" height="214.000000pt" viewBox="0 0 300.000000 214.000000"
 preserveAspectRatio="xMidYMid meet">
<metadata>
Created by potrace 1.10, written by Peter Selinger 2001-2011
</metadata>
<g transform="translate(0.000000,214.000000) scale(0.100000,-0.100000)"
fill="#000000" stroke="none">
<path d="M2070 1882 c-19 -26 -147 -189 -285 -362 -138 -173 -273 -343 -300
-378 l-49 -64 -17 24 c-10 13 -91 115 -181 229 -89 113 -171 216 -180 230 -16
23 -17 -4 -17 -501 l0 -525 22 29 c12 16 55 70 95 120 l74 91 -5 143 c-2 78
-3 142 -1 142 1 0 25 -32 54 -70 29 -39 55 -70 59 -70 4 0 97 113 206 251 110
138 287 360 392 493 106 132 193 247 193 254 0 25 -26 10 -60 -36z m-944 -474
c16 -18 52 -62 79 -98 27 -36 82 -104 122 -152 40 -47 73 -90 73 -94 0 -16
-45 -74 -58 -74 -6 0 -28 18 -48 40 -37 41 -75 52 -91 28 -4 -7 -10 -71 -13
-143 l-5 -130 -38 -52 c-22 -29 -45 -53 -52 -53 -11 0 -14 69 -14 380 -1 209
3 380 7 380 4 0 22 -15 38 -32z"/>
<path d="M1928 1540 c-15 -22 -98 -128 -185 -237 -376 -473 -789 -992 -830
-1042 -30 -38 -41 -57 -33 -65 13 -13 -39 -75 395 472 l130 163 27 -33 c16
-18 36 -45 45 -60 10 -16 20 -28 23 -28 7 0 237 289 260 326 8 13 17 24 20 24
3 0 4 -118 2 -262 l-3 -263 90 1 91 2 3 521 c1 287 0 521 -3 521 -3 -1 -17
-18 -32 -40z m-7 -942 c-5 -24 -86 -26 -95 -2 -3 9 -6 111 -6 227 -1 224 -5
247 -47 247 -21 0 -56 -30 -95 -82 -13 -17 -32 -41 -43 -53 -11 -13 -42 -53
-70 -89 -27 -36 -55 -65 -62 -66 -13 0 -63 61 -63 76 0 5 16 27 36 49 20 22
45 54 57 72 20 28 241 306 274 343 7 8 34 42 61 75 l47 60 5 -420 c3 -231 3
-428 1 -437z"/>
</g>
</svg>
